<?xml version="1.0" encoding="UTF-8"?>
<svg xmlns="http://www.w3.org/2000/svg" xmlns:xlink="http://www.w3.org/1999/xlink" width="20px" height="20px" viewBox="0 0 20 20" version="1.1">
<g id="surface1">
<path style="fill:none;stroke-width:2;stroke-linecap:round;stroke-linejoin:round;stroke:rgb(100%,100%,100%);stroke-opacity:1;stroke-miterlimit:4;" d="M 14.048437 6 C 15.028125 6.192187 15.923437 6.670312 16.626562 7.373437 C 17.329687 8.076562 17.807812 8.971875 18 9.951562 M 14.048437 2.001562 C 16.078125 2.226562 17.971875 3.135937 19.415625 4.575 C 20.859375 6.01875 21.773437 7.9125 21.998437 9.942187 M 18.501562 21 C 9.9375 21 3 14.0625 3 5.498437 C 3 5.114062 3.014062 4.729687 3.042187 4.35 C 3.075 3.91875 3.089062 3.698437 3.201562 3.501562 C 3.3 3.3375 3.464062 3.182812 3.6375 3.098437 C 3.84375 3 4.082812 3 4.560937 3 L 7.378125 3 C 7.78125 3 7.982812 3 8.15625 3.065625 C 8.310937 3.126562 8.446875 3.220312 8.554687 3.342187 C 8.676562 3.482812 8.746875 3.675 8.882812 4.054687 L 10.05 7.260937 C 10.209375 7.701562 10.289062 7.921875 10.275 8.132812 C 10.265625 8.315625 10.2 8.49375 10.092187 8.64375 C 9.975 8.817187 9.773437 8.939062 9.370312 9.178125 L 8.001562 9.998437 C 9.201562 12.646875 11.348437 14.798437 14.001562 15.998437 L 14.821875 14.629687 C 15.060937 14.226562 15.182812 14.025 15.35625 13.907812 C 15.50625 13.8 15.684375 13.734375 15.867187 13.725 C 16.078125 13.710937 16.298437 13.790625 16.739062 13.95 L 19.945312 15.117187 C 20.325 15.253125 20.517187 15.323437 20.657812 15.445312 C 20.779687 15.553125 20.873437 15.689062 20.934375 15.84375 C 21 16.017187 21 16.21875 21 16.621875 L 21 19.439062 C 21 19.917187 21 20.15625 20.901562 20.3625 C 20.817187 20.535937 20.6625 20.7 20.498437 20.798437 C 20.301562 20.910937 20.08125 20.925 19.65 20.957812 C 19.270312 20.985937 18.885937 21 18.501562 21 Z M 18.501562 21 " transform="matrix(0.833333,0,0,0.833333,0,0)"/>
</g>
</svg>
